<?xml version="1.0" standalone="no"?>
<!DOCTYPE svg PUBLIC "-//W3C//DTD SVG 20010904//EN"
 "http://www.w3.org/TR/2001/REC-SVG-20010904/DTD/svg10.dtd">
<svg version="1.0" xmlns="http://www.w3.org/2000/svg"
 width="16.000000pt" height="16.000000pt" viewBox="0 0 16.000000 16.000000"
 preserveAspectRatio="xMidYMid meet">
<metadata>
Created by potrace 1.11, written by Peter Selinger 2001-2013
</metadata>
<g transform="translate(0.000000,16.000000) scale(0.003471,-0.003471)"
fill="#000000" stroke="none">
<path d="M845 3203 c-15 -12 -16 -14 -3 -10 9 3 19 0 22 -9 9 -24 7 -31 -4
-14 -8 12 -10 9 -10 -13 0 -16 4 -26 8 -23 5 3 8 -8 8 -24 0 -16 -3 -27 -8
-24 -12 8 -9 -31 4 -44 8 -8 8 -15 -1 -26 -7 -9 -10 -24 -6 -37 4 -12 3 -19
-2 -16 -12 7 -10 -30 2 -40 4 -5 5 -1 0 7 -5 8 -4 12 0 7 11 -9 13 -77 3 -71
-13 8 -9 -41 5 -55 10 -11 9 -13 -4 -8 -11 3 -15 -1 -14 -14 1 -10 5 -22 10
-26 4 -5 5 -2 1 5 -4 6 -3 12 2 12 5 0 8 -18 8 -39 -1 -21 -4 -37 -8 -34 -5 2
-8 0 -8 -6 0 -5 5 -13 10 -16 7 -4 7 -12 0 -25 -12 -23 -13 -33 -2 -26 5 3 9
-1 9 -8 0 -8 -5 -12 -12 -10 -6 3 -11 -4 -11 -15 0 -11 4 -17 8 -15 4 3 8 1 8
-5 0 -5 -6 -12 -12 -14 -10 -4 -10 -6 0 -6 6 -1 12 -6 12 -12 0 -5 -4 -7 -10
-4 -6 3 -7 -1 -4 -9 3 -9 9 -14 13 -12 3 2 6 -11 6 -29 0 -18 -3 -31 -6 -29
-4 2 -10 -6 -14 -19 -12 -39 -13 -47 -5 -42 4 3 11 -7 16 -23 8 -30 8 -30 -2
-56 -5 -12 -4 -17 3 -13 5 3 10 0 10 -7 0 -8 -5 -12 -12 -10 -6 3 -11 -4 -11
-15 0 -11 4 -17 8 -15 4 3 8 1 8 -5 0 -5 -6 -12 -12 -14 -10 -4 -10 -6 0 -6 6
-1 12 -6 12 -12 0 -5 -4 -7 -10 -4 -6 3 -7 -1 -4 -9 3 -9 9 -14 13 -12 3 2 6
-11 6 -29 0 -18 -3 -31 -6 -29 -6 3 -15 -17 -24 -54 -2 -6 1 -10 6 -6 5 3 9 1
9 -5 0 -5 3 -17 7 -27 4 -10 2 -15 -4 -11 -8 5 -10 -25 -3 -43 1 -3 1 -9 0
-15 -1 -5 -4 -23 -6 -40 -3 -23 -1 -27 7 -15 8 12 9 9 4 -10 -13 -54 -13 -60
-3 -66 7 -5 8 -2 3 6 -6 9 -4 11 5 5 10 -6 9 -11 -5 -22 -13 -9 -14 -13 -5
-13 9 0 8 -5 -6 -16 -10 -8 -13 -13 -6 -9 6 3 12 1 12 -4 0 -6 -6 -11 -12 -11
-10 0 -9 -3 1 -9 9 -6 10 -11 2 -15 -6 -4 -8 -12 -5 -18 4 -7 2 -8 -5 -4 -6 4
-9 11 -6 16 3 5 0 12 -7 16 -7 4 -10 3 -5 -1 4 -5 0 -20 -10 -34 -16 -25 -16
-26 3 -11 18 14 18 14 5 -2 -7 -10 -17 -16 -21 -13 -4 3 -13 -2 -20 -10 -9
-11 -17 -12 -30 -5 -24 13 -40 13 -20 0 19 -13 -39 -8 -59 5 -10 5 -12 4 -7
-3 5 -9 1 -10 -16 -3 -13 4 -29 6 -37 3 -8 -3 -11 0 -7 7 4 7 0 11 -13 11 -10
0 -22 6 -24 13 -4 9 -6 9 -6 0 -1 -7 -6 -13 -12 -13 -5 0 -7 5 -4 10 3 6 -3
10 -14 10 -12 0 -21 5 -21 11 0 6 -7 8 -16 5 -10 -4 -13 -2 -8 6 5 7 2 9 -9 5
-12 -4 -15 -1 -12 14 3 16 1 17 -15 9 -15 -8 -20 -6 -25 10 -3 11 -15 20 -26
20 -10 0 -19 5 -19 11 0 5 6 7 13 3 8 -5 8 -2 -2 9 -14 18 -26 24 -17 8 9 -14
-31 -20 -45 -7 -9 8 -10 8 -5 -1 4 -7 2 -13 -4 -13 -6 0 -8 -4 -5 -10 3 -5 0
-7 -8 -4 -8 3 -18 0 -23 -7 -5 -8 -3 -10 7 -4 8 5 11 4 6 -1 -5 -5 -12 -9 -15
-9 -4 0 -13 -4 -19 -8 -9 -6 -11 -3 -7 10 5 17 5 17 -6 0 -6 -9 -8 -23 -4 -30
5 -8 2 -7 -9 2 -15 12 -17 11 -17 -3 0 -9 -7 -16 -15 -16 -8 0 -15 -4 -15 -10
0 -5 -7 -10 -15 -10 -8 0 -15 -5 -15 -11 0 -8 -5 -7 -15 1 -13 11 -14 10 -8
-5 5 -14 3 -17 -10 -12 -10 4 -16 2 -14 -6 1 -7 -6 -11 -15 -11 -10 1 -15 -3
-12 -8 3 -5 -3 -12 -15 -15 -11 -3 -18 -9 -15 -14 3 -5 -5 -9 -18 -9 -17 0
-24 -6 -24 -21 0 -14 5 -19 17 -16 11 3 16 0 13 -8 -3 -6 3 -18 13 -26 16 -13
17 -12 4 4 -7 9 -11 17 -8 17 9 0 57 -50 57 -59 0 -5 11 -7 24 -6 19 3 23 -1
18 -13 -5 -15 -4 -16 13 -2 10 8 16 11 13 5 -3 -5 0 -16 8 -23 11 -10 14 -10
14 0 0 9 3 9 9 -2 6 -8 7 -19 3 -25 -3 -5 2 -4 11 4 13 10 17 10 17 1 0 -7 8
-10 20 -7 15 4 20 0 20 -14 0 -10 5 -19 11 -19 5 0 8 4 4 9 -3 5 0 13 6 17 7
4 9 3 6 -3 -9 -15 13 -30 41 -27 13 1 26 -4 29 -12 2 -7 13 -11 24 -9 10 2 19
-1 19 -6 0 -6 8 -5 21 2 14 7 19 7 15 0 -5 -7 77 -10 266 -9 239 0 274 2 286
17 7 9 11 10 7 4 -9 -19 6 -16 22 5 8 10 11 11 7 2 -7 -13 -5 -13 9 -1 9 7 17
10 17 5 0 -4 7 1 16 12 8 10 13 13 9 7 -3 -7 -1 -13 4 -13 6 0 11 7 11 15 0
14 11 19 36 16 6 -1 18 7 25 16 13 17 13 17 -6 3 -19 -14 -19 -14 -6 3 9 12
23 17 38 14 20 -4 21 -2 11 11 -11 13 -10 15 3 10 11 -5 16 -1 15 10 0 10 5
16 13 14 9 -2 11 3 7 13 -3 9 -2 13 4 10 6 -3 10 -1 10 5 0 6 5 8 13 4 7 -5 6
0 -3 11 -9 11 -10 16 -2 11 7 -4 12 -1 12 9 0 8 6 18 13 21 7 2 13 14 14 24 1
13 -2 18 -10 13 -9 -5 -9 -3 0 8 10 12 13 192 13 782 l0 767 -217 0 c-185 -1
-221 -3 -238 -17z m22 -783 c1 -16 -1 -17 -12 -7 -7 6 -11 15 -8 20 8 13 19 7
20 -13z m0 -320 c1 -16 -1 -17 -12 -7 -7 6 -11 15 -8 20 8 13 19 7 20 -13z"/>
<path d="M2257 3174 c-4 -4 -1 -14 6 -23 11 -14 10 -14 -6 -2 -26 21 -53 21
-53 0 0 -10 4 -15 8 -13 14 9 9 -4 -8 -20 -14 -15 -14 -16 1 -16 13 0 14 -4 5
-20 -7 -13 -7 -20 -1 -20 6 0 8 -7 5 -15 -4 -8 -11 -12 -18 -8 -6 4 -5 -1 3
-10 14 -18 22 -99 9 -90 -5 2 -8 0 -8 -6 0 -5 6 -12 13 -14 6 -3 3 -6 -7 -6
-20 -1 -20 -1 0 -16 10 -8 15 -15 9 -15 -11 0 -14 -60 -3 -60 4 0 5 -7 2 -15
-4 -8 -11 -12 -16 -9 -6 4 -2 -5 7 -20 10 -14 13 -26 9 -26 -5 0 -9 -20 -9
-45 0 -25 3 -45 7 -45 4 0 5 -7 2 -15 -4 -8 -11 -12 -18 -8 -6 4 -5 -1 3 -10
14 -18 22 -99 9 -90 -5 2 -8 0 -8 -6 0 -5 6 -12 13 -14 6 -3 3 -6 -7 -6 -20
-1 -20 -1 0 -16 10 -8 15 -15 9 -15 -11 0 -14 -60 -3 -60 4 0 5 -7 2 -15 -4
-8 -11 -12 -18 -8 -6 4 -5 -1 3 -10 14 -18 22 -99 9 -90 -5 2 -8 0 -8 -6 0 -5
6 -12 13 -14 6 -3 3 -6 -7 -6 -20 -1 -20 -1 0 -16 10 -8 15 -15 9 -15 -11 0
-14 -60 -3 -60 4 0 5 -7 2 -15 -4 -8 -11 -12 -18 -8 -7 5 -7 2 1 -8 14 -17 16
-46 10 -131 -3 -41 0 -61 10 -69 10 -9 10 -15 2 -25 -8 -10 -8 -14 0 -14 6 0
11 -5 11 -11 0 -5 -4 -8 -8 -5 -4 2 -9 -5 -9 -17 -2 -16 0 -18 6 -8 13 20 20
-17 10 -46 -5 -14 -4 -25 3 -29 7 -5 8 -2 3 7 -5 8 -4 10 0 6 14 -12 15 -38 2
-30 -8 5 -8 2 0 -8 10 -12 10 -18 0 -28 -9 -10 -8 -11 8 -5 18 7 18 6 7 -9
-12 -14 -11 -16 5 -12 12 2 20 -2 20 -10 0 -8 -4 -12 -9 -9 -4 3 -5 -2 -2 -10
3 -9 11 -13 18 -9 6 4 4 -2 -4 -12 -9 -11 -10 -16 -2 -11 6 4 12 2 12 -3 0 -6
8 -11 18 -11 14 0 15 -2 2 -10 -13 -9 -13 -10 0 -10 13 0 13 -2 1 -9 -11 -7
-9 -10 10 -13 16 -2 23 -9 22 -21 -1 -14 4 -17 18 -14 10 3 22 0 26 -5 3 -7 1
-8 -5 -4 -16 10 -15 -2 2 -19 7 -8 16 -11 20 -8 3 4 6 -1 6 -10 0 -9 5 -17 11
-17 5 0 7 4 4 10 -3 6 1 7 9 4 9 -3 15 -9 14 -12 -2 -22 4 -31 19 -25 12 5 14
3 8 -8 -7 -12 -6 -12 7 -1 12 10 18 10 23 1 4 -6 1 -16 -6 -21 -11 -8 -10 -9
3 -5 9 3 19 3 21 -1 2 -4 2 -1 0 7 -3 11 1 11 15 -2 11 -10 23 -17 28 -16 21
4 35 -2 29 -11 -4 -6 1 -7 10 -3 10 3 21 0 26 -8 8 -12 11 -12 19 1 8 13 13 9
12 -10 0 -3 18 -4 41 -3 152 5 185 5 194 0 6 -4 16 0 23 8 7 8 23 15 36 15 13
0 24 6 24 13 0 8 3 7 10 -3 8 -12 10 -12 16 3 5 13 10 15 19 7 10 -8 15 -8 21
1 5 8 3 10 -7 4 -12 -7 -12 -5 -1 6 11 12 14 12 23 -1 8 -11 9 -7 5 15 -5 22
-4 26 3 15 9 -13 14 -13 31 -2 11 7 25 10 30 7 6 -3 7 1 4 9 -3 9 -11 13 -18
9 -6 -3 -7 -2 -3 2 4 5 15 10 23 11 33 5 44 13 37 30 -5 13 -2 16 10 11 11 -4
18 1 23 16 5 12 7 25 6 28 -1 4 9 5 21 2 18 -4 19 -3 7 6 -12 8 -12 11 -1 11
8 0 11 6 7 16 -3 8 -2 13 2 10 4 -2 16 3 27 11 19 15 19 15 -5 8 l-25 -7 23
17 c13 10 21 23 18 32 -3 8 -1 11 4 8 6 -3 10 -1 10 5 0 6 5 8 13 4 8 -5 8 -2
-2 9 -9 12 -10 17 -2 17 7 0 9 4 6 10 -3 5 0 10 7 10 9 0 9 3 -2 10 -8 5 -10
10 -4 10 7 0 11 20 10 54 -1 30 2 52 6 50 5 -3 5 -11 2 -17 -4 -7 -3 -8 2 -4
4 4 9 19 10 32 0 17 -3 22 -15 18 -12 -3 -12 -2 2 7 19 12 24 35 5 24 -9 -5
-9 -2 1 9 7 9 10 17 7 17 -4 0 -2 9 4 20 7 14 7 20 0 20 -5 0 -10 -5 -10 -12
0 -6 -3 -8 -6 -5 -4 4 -1 13 5 21 8 9 8 16 2 20 -6 4 -8 13 -5 21 4 8 10 12
15 9 5 -3 6 2 3 10 -3 9 -11 13 -18 9 -6 -3 -6 -1 2 8 14 15 16 55 2 64 -5 3
-7 12 -4 20 4 8 10 12 15 9 5 -3 6 2 3 10 -3 9 -11 13 -18 9 -8 -5 -8 -3 0 8
13 16 16 297 3 305 -4 2 -6 11 -3 19 4 8 10 12 15 9 5 -3 6 2 3 10 -3 9 -11
13 -18 9 -8 -5 -7 -2 1 8 15 18 14 121 -1 111 -7 -3 -7 0 0 9 13 16 16 297 3
305 -4 2 -6 11 -3 19 4 8 10 12 15 9 5 -3 6 2 3 10 -3 9 -10 13 -15 10 -5 -3
-6 2 -3 10 3 9 11 13 16 10 6 -4 5 3 -1 15 -10 18 -9 20 6 15 17 -5 17 -5 1 6
-20 12 -25 35 -5 24 7 -5 5 2 -4 16 -14 22 -38 27 -32 8 2 -4 -4 -5 -12 -2 -8
4 -12 11 -8 18 3 6 1 6 -8 -1 -7 -7 -19 -13 -27 -13 -8 0 -10 5 -6 13 5 8 2 8
-9 -2 -12 -9 -17 -10 -17 -2 0 7 -5 9 -10 6 -8 -5 -7 -12 2 -23 11 -15 11 -15
-2 -6 -23 17 -55 22 -73 13 -11 -7 -19 -4 -26 8 -10 17 -10 17 -11 1 0 -10 -4
-18 -10 -18 -5 0 -9 3 -9 8 4 21 -2 24 -14 7 -11 -14 -16 -15 -22 -5 -6 9 -4
11 5 5 9 -6 11 -4 5 5 -6 10 -10 10 -19 -2 -6 -8 -16 -13 -23 -11 -7 3 -11 -4
-10 -16 1 -12 5 -21 10 -21 5 0 7 7 4 14 -4 10 -1 13 9 9 11 -4 12 -9 3 -19
-6 -7 -7 -19 -3 -26 5 -8 1 -8 -11 2 -17 14 -18 14 -5 -10 8 -14 13 -29 12
-34 -2 -4 3 -16 10 -25 11 -14 11 -14 -7 1 -19 16 -20 15 -21 -8 -1 -13 2 -24
8 -24 5 0 6 6 2 13 -4 6 -3 9 1 4 14 -12 14 -48 0 -37 -7 6 -11 3 -11 -10 0
-10 4 -16 8 -14 4 3 8 -6 8 -20 0 -14 -4 -28 -10 -31 -13 -8 -13 -25 1 -25 5
0 7 6 3 13 -4 6 -3 9 1 5 12 -11 15 -57 4 -63 -5 -3 -6 0 -3 8 3 8 1 18 -4 21
-5 3 -8 -8 -6 -24 2 -18 -1 -30 -8 -30 -6 0 -8 -3 -5 -6 4 -4 13 -2 20 4 11 9
13 7 12 -8 -1 -11 -5 -23 -10 -27 -4 -5 -4 -1 0 7 8 13 7 13 -8 1 -18 -15 -23
-26 -7 -16 16 10 23 -24 9 -42 -12 -14 -12 -16 2 -11 11 4 15 0 14 -13 -1 -10
-5 -22 -10 -26 -4 -5 -5 -2 0 6 5 9 4 12 -3 7 -6 -4 -9 -13 -5 -21 3 -8 -1
-15 -8 -15 -7 0 -9 -3 -6 -6 4 -4 13 -2 20 4 11 9 13 7 12 -8 -1 -11 -5 -23
-10 -27 -4 -5 -4 -1 0 7 8 13 7 13 -8 1 -18 -15 -23 -26 -7 -16 16 10 23 -24
9 -42 -12 -14 -12 -16 1 -11 11 4 15 -1 15 -18 0 -21 -1 -22 -20 -6 -17 15
-18 15 -7 1 7 -9 10 -24 6 -33 -3 -9 -1 -16 6 -16 6 0 8 6 4 13 -4 6 -3 9 1 4
14 -12 13 -46 -1 -40 -6 2 -15 -1 -20 -8 -4 -7 -3 -10 3 -6 12 8 36 -17 26
-26 -3 -4 0 -15 8 -24 13 -17 13 -17 -6 -1 -19 16 -20 15 -21 -8 -1 -13 2 -24
8 -24 5 0 6 6 2 13 -4 6 -3 9 1 4 14 -12 14 -48 0 -37 -7 6 -11 3 -11 -10 0
-10 4 -16 8 -14 4 3 8 -6 8 -20 0 -14 -4 -28 -10 -31 -13 -8 -13 -25 1 -25 5
0 7 6 3 13 -4 6 -3 9 1 5 12 -11 15 -57 4 -63 -5 -3 -6 0 -3 8 3 8 1 18 -4 21
-5 3 -8 -8 -6 -24 2 -18 -1 -30 -8 -30 -6 0 -8 -3 -5 -6 4 -4 13 -2 20 4 11 9
13 7 12 -8 -1 -11 -5 -23 -10 -27 -4 -5 -4 -1 0 7 8 13 7 13 -8 1 -18 -15 -23
-26 -7 -16 16 10 23 -24 9 -42 -12 -15 -12 -16 4 -10 15 6 16 4 7 -13 -5 -10
-6 -21 -2 -24 11 -6 9 -43 -3 -53 -4 -5 -5 -3 -1 4 3 6 1 15 -6 19 -7 4 -10 4
-6 -1 4 -4 2 -15 -5 -23 -9 -13 -9 -14 1 -8 7 4 12 2 12 -4 0 -6 5 -8 13 -4 9
6 9 5 0 -8 -7 -8 -9 -19 -5 -23 4 -5 1 -5 -6 -1 -7 4 -9 12 -6 18 4 7 2 8 -4
4 -9 -5 -9 -13 -2 -26 7 -13 6 -20 -3 -23 -9 -4 -9 -6 0 -6 14 -1 6 -32 -11
-43 -7 -6 -6 -11 4 -18 13 -8 12 -10 -2 -10 -10 0 -18 -6 -18 -14 0 -8 -9 -18
-20 -21 -11 -4 -17 -11 -14 -17 5 -8 1 -9 -11 -4 -15 5 -16 4 -6 -8 11 -13 9
-15 -8 -11 -23 4 -29 -10 -8 -19 6 -2 3 -4 -8 -3 -11 2 -26 7 -34 11 -10 7
-12 6 -6 -4 6 -10 4 -12 -8 -7 -12 4 -14 2 -10 -11 6 -15 5 -15 -10 -3 -15 12
-17 11 -18 -5 0 -11 -3 -13 -6 -7 -3 9 -10 10 -24 3 -11 -7 -19 -7 -19 -1 0 5
5 11 12 13 8 3 6 7 -5 11 -9 3 -16 3 -16 -1 3 -20 -3 -23 -18 -11 -15 12 -16
12 -9 -6 5 -15 4 -17 -5 -8 -6 6 -18 9 -25 6 -8 -3 -14 0 -14 7 0 6 5 8 10 5
6 -3 10 -2 10 4 0 6 -15 9 -34 7 -26 -2 -33 1 -28 13 4 10 1 13 -11 8 -9 -3
-19 -2 -22 4 -4 5 -12 6 -18 2 -7 -4 -6 1 2 10 12 15 12 17 -2 11 -12 -4 -15
-1 -12 16 3 18 2 20 -10 10 -11 -9 -12 -7 -8 9 4 15 1 21 -11 21 -12 0 -14 5
-6 25 8 20 6 27 -11 36 -14 7 -18 14 -11 21 5 5 6 24 2 44 -7 28 -5 34 9 35
12 0 12 2 -4 9 -11 5 -14 9 -6 9 10 1 11 4 2 14 -6 8 -8 17 -4 21 4 4 1 11 -7
16 -12 8 -12 10 4 10 15 0 16 3 6 15 -7 8 -9 22 -6 32 4 9 1 20 -6 25 -9 5 -8
8 6 8 15 0 16 3 6 15 -7 8 -9 22 -6 32 4 9 1 20 -6 25 -9 5 -8 8 6 8 15 0 16
3 6 15 -7 8 -9 22 -6 32 4 9 1 20 -6 25 -9 5 -8 8 6 8 15 0 16 3 6 15 -7 8 -9
22 -6 32 4 9 1 20 -6 25 -9 5 -8 8 6 8 15 0 16 3 6 15 -7 8 -9 22 -6 32 4 9 1
20 -6 25 -9 5 -8 8 6 8 15 0 16 3 6 15 -7 8 -9 22 -6 32 4 9 1 20 -6 25 -9 5
-8 8 6 8 15 0 16 3 6 15 -7 8 -9 22 -6 32 4 9 1 20 -6 25 -9 5 -8 8 6 8 15 0
16 3 6 15 -7 8 -9 22 -6 32 4 9 1 20 -6 25 -9 5 -8 8 6 8 15 0 16 3 6 15 -7 8
-9 22 -6 32 4 9 1 20 -6 25 -9 5 -8 8 6 8 15 0 16 3 6 15 -7 8 -9 22 -6 32 4
9 1 20 -6 25 -9 5 -8 8 6 8 15 0 16 3 6 15 -7 8 -9 22 -6 32 4 9 1 20 -6 25
-9 5 -8 8 6 8 15 0 16 3 6 15 -7 8 -9 22 -6 32 4 9 1 20 -6 25 -9 5 -7 8 7 8
15 0 16 3 7 12 -14 14 -16 52 -3 43 5 -3 13 0 17 6 4 8 3 9 -4 5 -7 -4 -12 -1
-12 8 0 8 -6 17 -12 19 -10 4 -10 6 0 6 6 1 12 6 12 12 0 5 -4 7 -10 4 -5 -3
-10 2 -11 12 0 11 -3 13 -6 5 -4 -10 -8 -10 -21 0 -9 8 -13 8 -9 2 4 -7 0 -14
-8 -18 -8 -3 -17 0 -21 6 -5 7 -2 8 6 3 9 -6 11 -4 5 5 -6 10 -11 10 -20 -3
-15 -20 -26 -22 -19 -4 3 8 -2 14 -10 14 -8 0 -13 -4 -10 -9 3 -4 -2 -8 -10
-8 -9 0 -16 5 -16 12 0 6 -7 3 -16 -8 -8 -10 -13 -14 -10 -7 4 6 2 14 -4 18
-5 3 -10 1 -10 -4 0 -6 -9 -11 -21 -11 -13 0 -18 4 -13 13 6 9 4 9 -8 -1 -11
-9 -17 -9 -20 -2 -2 6 -7 8 -11 4z m1081 -29 c-3 -3 -9 2 -12 12 -6 14 -5 15
5 6 7 -7 10 -15 7 -18z m-1115 -1160 c4 -8 3 -16 -1 -19 -4 -3 -9 4 -9 15 -2
23 3 25 10 4z"/>
<path d="M3440 3170 c0 -7 -7 -10 -15 -6 -8 3 -15 1 -15 -5 0 -6 -5 -7 -12 -3
-7 4 -8 3 -4 -5 4 -6 11 -9 16 -6 4 3 11 -3 14 -12 4 -10 4 -14 0 -11 -3 4
-12 2 -19 -5 -9 -9 -9 -14 2 -25 12 -12 11 -18 -3 -39 -9 -14 -11 -22 -5 -19
7 5 11 -2 11 -19 0 -15 -4 -24 -10 -20 -15 9 -12 -4 4 -20 14 -15 10 -69 -5
-59 -5 3 -9 1 -9 -5 0 -5 5 -11 11 -13 5 -2 12 -16 13 -31 2 -20 -1 -27 -9
-23 -14 5 -14 -19 0 -31 4 -4 5 -1 0 7 -7 12 -6 13 6 2 12 -11 12 -14 0 -22
-8 -4 -15 -18 -16 -29 -1 -11 2 -18 7 -15 5 4 7 13 4 21 -3 8 -2 11 4 8 12 -7
4 -69 -9 -73 -7 -2 -4 -10 5 -19 13 -14 13 -18 -2 -40 -9 -14 -12 -23 -6 -19
5 3 12 -3 15 -14 3 -11 1 -20 -4 -20 -5 0 -9 5 -9 12 0 6 -3 8 -7 5 -3 -4 2
-16 12 -27 18 -20 18 -21 -1 -35 -17 -13 -17 -14 -2 -15 9 0 20 -5 24 -12 4
-7 3 -8 -4 -4 -7 4 -12 2 -12 -4 0 -6 -4 -8 -10 -5 -15 9 -12 -4 4 -20 14 -15
10 -69 -5 -59 -14 8 -11 -6 4 -21 16 -15 14 -98 -2 -103 -7 -2 -5 -9 5 -19 13
-14 13 -18 -2 -40 -9 -14 -11 -22 -5 -19 6 4 11 0 11 -9 0 -9 -4 -14 -8 -11
-5 3 -9 -1 -9 -9 0 -8 4 -12 9 -9 4 3 8 -6 8 -20 0 -14 -4 -27 -9 -31 -6 -3
-9 -14 -8 -25 1 -10 5 -17 9 -14 4 3 5 12 2 22 -5 14 -4 15 5 2 7 -11 6 -21
-5 -39 -9 -13 -11 -20 -5 -17 7 5 11 -2 11 -19 0 -15 -4 -24 -10 -20 -15 9
-12 -4 4 -20 14 -15 10 -69 -5 -59 -5 3 -9 0 -9 -5 0 -6 4 -11 9 -11 17 0 20
-29 5 -45 -15 -15 -7 -21 20 -16 5 1 4 -5 -4 -13 -15 -19 -24 -21 -14 -4 4 7
3 8 -4 4 -18 -11 -14 -24 9 -31 16 -5 18 -9 9 -15 -7 -5 -10 -17 -7 -30 4 -16
2 -19 -7 -11 -8 7 -12 5 -12 -9 0 -10 4 -17 7 -14 4 2 10 0 14 -6 3 -5 1 -10
-6 -10 -10 0 -10 -3 -2 -11 13 -13 6 -42 -8 -33 -5 3 -9 0 -9 -5 0 -6 4 -11 9
-11 5 0 11 -9 14 -21 4 -15 2 -19 -9 -15 -8 3 -13 2 -9 -3 3 -5 2 -11 -2 -14
-5 -2 -3 -2 4 -1 7 2 15 -2 19 -8 4 -6 3 -8 -4 -4 -6 3 -13 2 -17 -4 -6 -10 9
-15 30 -10 6 1 0 -9 -12 -22 -25 -27 -23 -86 3 -101 12 -7 13 -11 4 -17 -9 -5
-8 -9 3 -13 11 -4 15 0 12 14 -2 10 0 19 6 19 9 0 13 -14 10 -35 -1 -5 8 1 19
14 12 14 20 18 20 10 0 -11 2 -11 10 1 8 13 10 13 10 -1 0 -9 8 -20 18 -24 14
-5 15 -4 5 6 -17 17 -16 26 2 26 8 0 12 -4 10 -8 -3 -3 4 -9 14 -12 13 -3 18
0 15 7 -3 7 2 13 10 13 8 0 13 -4 10 -9 -8 -12 10 -10 24 4 7 7 12 8 12 2 0
-5 5 -2 11 6 9 13 10 13 6 0 -2 -8 -10 -14 -16 -12 -7 1 -10 -2 -7 -7 4 -6 20
-4 41 5 19 8 36 12 36 9 1 -3 2 -9 3 -14 0 -5 5 -13 10 -18 5 -4 6 -3 3 3 -4
7 0 15 9 18 13 5 14 9 4 21 -7 8 -9 15 -4 15 5 0 10 20 11 45 1 29 -2 43 -9
39 -7 -4 -6 0 1 13 7 14 7 24 -2 33 -10 10 -8 12 7 6 15 -5 17 -4 7 8 -7 8
-10 33 -7 60 2 29 0 44 -6 40 -6 -4 -6 1 1 13 7 14 7 24 -2 33 -10 10 -8 12 7
6 16 -5 17 -4 6 9 -7 9 -10 25 -6 41 5 18 3 24 -5 19 -8 -6 -8 -2 0 13 6 11
11 23 11 27 0 3 -5 3 -11 -1 -8 -5 -8 -1 0 13 7 14 7 24 -2 33 -10 10 -8 12 7
6 15 -5 17 -4 7 7 -6 8 -10 33 -8 56 2 23 -1 45 -6 48 -5 3 -3 9 4 13 10 7 10
12 0 23 -8 10 -8 16 -1 19 7 2 7 14 1 35 -9 29 -8 32 7 24 29 -15 72 -59 72
-73 0 -9 -3 -9 -11 2 -9 13 -10 13 -6 0 2 -8 12 -14 22 -12 13 3 16 -1 12 -12
-4 -11 -1 -16 10 -16 9 0 13 -3 10 -6 -9 -9 12 -46 23 -39 5 3 12 0 16 -6 4
-7 3 -9 -4 -5 -6 3 -13 2 -17 -4 -3 -5 3 -10 15 -10 12 0 18 -4 15 -10 -3 -5
-1 -10 4 -10 6 0 10 -3 8 -8 -1 -4 10 -21 25 -37 15 -16 25 -33 22 -37 -3 -5
4 -17 15 -27 12 -10 21 -26 21 -35 0 -10 5 -14 10 -11 9 5 15 -15 11 -38 -1
-4 7 -3 17 2 14 7 19 6 19 -4 0 -8 -5 -11 -11 -8 -6 4 -5 -1 3 -10 7 -9 17
-15 21 -12 5 3 6 -3 3 -14 -4 -18 11 -36 31 -36 5 0 10 -9 12 -19 1 -10 8 -22
14 -26 7 -4 12 -11 13 -16 1 -5 5 -8 9 -7 3 1 9 -4 12 -13 3 -8 2 -12 -4 -9
-6 3 -10 1 -10 -4 0 -6 10 -11 23 -11 22 -1 22 -1 2 -17 -15 -12 -16 -14 -3
-10 11 4 19 -1 23 -14 4 -10 14 -19 23 -20 13 0 13 -2 3 -6 -10 -4 -8 -9 10
-20 13 -8 16 -12 6 -9 -15 5 -16 2 -7 -14 6 -11 16 -20 23 -20 8 0 7 4 -3 11
-12 9 -12 10 3 5 10 -3 21 -6 23 -6 3 0 2 -4 -1 -10 -9 -14 28 -12 44 3 11 10
13 10 7 0 -8 -15 10 -18 19 -3 4 7 12 7 24 0 10 -5 21 -7 24 -4 3 3 27 7 53 9
44 2 46 1 28 -13 -18 -14 -18 -14 0 -8 10 3 26 1 35 -6 14 -12 15 -11 2 5 -8
9 -11 21 -7 24 4 4 11 2 15 -5 4 -8 15 -10 26 -6 14 6 16 4 11 -7 -4 -8 -1 -6
6 3 13 15 15 15 27 0 11 -16 12 -16 7 0 -3 10 0 20 6 24 6 4 8 3 4 -4 -3 -6
-3 -13 2 -16 5 -3 8 8 8 25 0 16 -3 29 -8 29 -4 0 -8 7 -8 16 0 10 -6 14 -14
11 -10 -4 -13 1 -11 18 1 17 -4 26 -16 30 -11 4 -19 16 -19 27 0 15 -4 18 -17
14 -10 -4 -14 -4 -10 0 4 4 -1 17 -10 28 -17 20 -17 20 0 7 11 -9 17 -10 17
-2 0 6 -4 11 -8 11 -5 0 -17 7 -28 15 -19 15 -19 15 1 10 16 -5 16 -3 -2 6
-13 7 -23 18 -23 26 0 7 -4 13 -10 13 -5 0 -10 8 -10 19 0 10 -8 25 -17 32
-17 13 -17 13 -3 -6 14 -18 14 -19 -2 -7 -9 7 -15 22 -13 33 2 11 0 17 -4 15
-4 -3 -17 2 -27 10 -10 9 -13 13 -6 9 17 -9 15 3 -3 22 -8 8 -12 20 -8 26 4 7
0 8 -11 4 -10 -4 -15 -3 -11 3 3 6 0 10 -7 10 -9 0 -9 3 2 10 11 7 11 10 2 10
-8 0 -10 5 -6 13 5 8 2 8 -9 -2 -15 -12 -17 -10 -17 19 0 28 -2 31 -15 20 -13
-11 -14 -10 -9 5 5 13 4 16 -5 11 -8 -6 -11 -2 -9 10 2 11 -2 18 -9 17 -7 -2
-10 4 -7 12 4 10 0 15 -12 15 -16 0 -17 2 -4 10 13 8 12 10 -4 10 -16 0 -17 2
-5 17 13 15 12 15 -11 3 -14 -7 -22 -9 -18 -5 4 5 2 15 -5 24 -11 14 -10 14 6
2 22 -18 22 -10 -2 17 -10 12 -22 18 -26 14 -4 -4 -6 3 -3 14 4 15 1 21 -11
20 -9 0 -15 5 -13 12 1 7 -5 20 -13 28 -8 9 -12 21 -8 27 4 7 -2 5 -12 -3 -11
-9 -16 -10 -11 -2 4 7 2 12 -6 12 -9 0 -9 3 2 10 12 7 12 10 1 10 -7 0 -11 6
-8 14 4 11 0 13 -15 11 -11 -3 -18 -2 -15 2 7 6 -29 62 -48 75 -6 5 -5 8 3 8
7 0 10 5 7 10 -4 6 -12 7 -18 3 -7 -4 -6 0 2 10 15 19 26 23 15 5 -4 -7 -3 -8
5 -4 9 6 9 11 0 22 -7 9 -8 14 -3 13 17 -4 44 13 37 24 -3 6 7 21 23 35 16 13
22 21 14 17 -10 -4 -9 -1 3 8 9 8 17 19 17 26 0 6 5 11 11 11 5 0 7 5 4 10 -5
9 16 15 38 11 5 -1 6 3 2 9 -3 6 -11 7 -17 4 -7 -4 -8 -2 -4 4 4 7 14 12 22
12 8 0 12 5 9 10 -3 6 2 10 12 10 15 0 16 2 3 10 -13 8 -12 10 2 10 10 0 17 5
15 12 -1 7 4 12 11 13 6 0 11 3 10 7 -2 4 6 14 17 23 11 9 14 14 8 10 -8 -4
-11 -1 -7 9 3 8 12 12 20 9 8 -3 14 -2 13 3 -4 22 2 35 13 28 7 -4 8 -3 4 4
-4 7 6 25 24 42 16 16 30 34 30 40 0 6 4 9 9 5 5 -3 12 -1 16 5 3 5 1 10 -6
10 -6 0 0 11 14 24 14 13 23 27 19 32 -4 4 1 4 10 1 13 -4 16 -1 13 14 -2 11
0 17 4 15 4 -3 19 7 32 22 22 25 22 25 2 8 -13 -11 -23 -14 -23 -8 0 6 13 16
29 23 26 12 28 14 13 26 -15 11 -15 12 5 8 12 -2 27 3 34 11 10 12 9 13 -7 8
-13 -4 -10 1 9 19 16 14 26 30 23 36 -4 5 -1 13 5 17 8 5 10 2 5 -7 -4 -8 -1
-6 7 3 8 10 17 15 21 11 4 -4 4 1 0 12 -5 12 -9 14 -12 6 -3 -8 -8 -7 -16 5
-10 13 -15 14 -21 4 -6 -9 -4 -11 5 -5 9 6 11 4 5 -5 -6 -10 -11 -9 -22 5 -7
11 -13 13 -13 7 0 -7 -5 -12 -11 -12 -5 0 -8 4 -5 8 2 4 -7 7 -22 6 -14 0 -28
-6 -30 -12 -2 -7 -8 -12 -13 -12 -4 0 -6 8 -3 18 5 16 5 16 -8 0 -13 -15 -15
-15 -25 0 -11 16 -12 16 -12 0 -1 -10 -5 -18 -11 -18 -5 0 -9 3 -7 8 1 4 -2 7
-8 7 -5 0 -9 -4 -7 -10 1 -5 -4 -2 -11 7 -12 15 -14 15 -25 0 -10 -15 -11 -15
-5 3 6 20 6 20 -16 1 -22 -20 -22 -20 -16 0 6 18 6 18 -8 2 -15 -18 -33 -25
-23 -9 3 5 -1 11 -9 15 -8 3 -17 0 -21 -6 -5 -7 -2 -8 6 -3 9 6 11 4 6 -4 -6
-9 -13 -8 -29 6 -19 16 -20 16 -8 1 12 -16 7 -24 -40 -70 -30 -29 -46 -47 -36
-39 11 9 17 10 17 2 0 -6 -4 -11 -8 -11 -5 0 -17 -7 -28 -16 -10 -8 -12 -12
-4 -8 13 7 13 5 1 -9 -7 -9 -17 -14 -22 -11 -5 3 -9 -5 -9 -16 0 -13 -8 -24
-20 -27 -11 -3 -17 -9 -14 -14 3 -5 0 -9 -6 -9 -6 0 -8 -5 -4 -12 5 -8 2 -9
-11 -4 -15 5 -16 4 -5 -9 10 -12 10 -15 -3 -15 -8 0 -17 -9 -20 -20 -3 -11
-13 -20 -22 -20 -9 0 -13 -5 -10 -11 9 -13 -24 -51 -38 -42 -5 3 -7 1 -3 -5 3
-6 -1 -17 -9 -25 -8 -9 -15 -20 -15 -26 0 -5 -15 -22 -32 -36 -18 -15 -26 -24
-18 -20 8 3 6 -1 -5 -10 -11 -9 -19 -21 -17 -27 2 -6 -4 -8 -12 -5 -10 4 -13
-1 -11 -18 1 -14 -2 -22 -6 -19 -5 3 -9 0 -9 -7 0 -9 -3 -9 -14 0 -16 14 -21
125 -5 116 5 -3 6 1 3 9 -3 9 -10 13 -15 10 -12 -7 2 29 15 38 8 5 8 8 0 8 -7
0 -15 7 -18 16 -3 8 -2 12 4 9 6 -3 10 1 10 10 0 9 -4 13 -10 10 -6 -4 -7 2
-2 17 10 30 9 79 -2 97 -7 11 -5 13 9 7 13 -5 15 -3 8 6 -15 19 -23 58 -12 58
5 0 9 -5 9 -12 0 -6 3 -8 6 -5 4 4 1 13 -5 21 -7 8 -10 20 -7 25 4 5 2 12 -4
16 -6 4 -7 11 -3 18 10 16 10 58 1 63 -5 3 -6 11 -2 17 3 7 -2 3 -11 -8 -17
-20 -17 -20 -10 5 l8 25 -23 -20 c-13 -11 -20 -14 -16 -7 4 6 2 12 -3 12 -6 0
-11 -6 -12 -12 0 -7 -4 -4 -9 7 -7 18 -8 19 -15 3 -4 -10 -11 -18 -16 -18 -4
0 -6 8 -3 18 5 14 3 14 -10 -2 -16 -20 -16 -20 -16 0 -1 18 -1 18 -14 2 -15
-21 -28 -24 -20 -5 3 8 -3 13 -15 13 -16 0 -18 -3 -8 -15 9 -11 4 -11 -17 3
-16 10 -26 14 -22 8 10 -17 -23 -22 -39 -6 -9 10 -15 11 -15 4z m1025 -18 c-3
-3 -11 0 -18 7 -9 10 -8 11 6 5 10 -3 15 -9 12 -12z m-691 -978 c7 -19 2 -18
-19 6 -16 17 -16 20 -3 15 9 -4 19 -13 22 -21z m-354 -624 c0 -5 -5 -10 -11
-10 -5 0 -7 5 -4 10 3 6 8 10 11 10 2 0 4 -4 4 -10z"/>
<path d="M830 3126 c0 -2 7 -9 15 -16 9 -7 15 -8 15 -2 0 5 -7 12 -15 16 -8 3
-15 4 -15 2z"/>
<path d="M3393 3075 c0 -8 4 -12 9 -9 5 3 6 10 3 15 -9 13 -12 11 -12 -6z"/>
<path d="M2530 3070 c0 -5 5 -10 11 -10 5 0 7 5 4 10 -3 6 -8 10 -11 10 -2 0
-4 -4 -4 -10z"/>
<path d="M845 3030 c3 -5 8 -10 11 -10 2 0 4 5 4 10 0 6 -5 10 -11 10 -5 0 -7
-4 -4 -10z"/>
<path d="M2530 2990 c0 -5 5 -10 11 -10 5 0 7 5 4 10 -3 6 -8 10 -11 10 -2 0
-4 -4 -4 -10z"/>
<path d="M3390 2949 c0 -5 5 -7 10 -4 6 3 10 8 10 11 0 2 -4 4 -10 4 -5 0 -10
-5 -10 -11z"/>
<path d="M2530 2910 c0 -5 5 -10 11 -10 5 0 7 5 4 10 -3 6 -8 10 -11 10 -2 0
-4 -4 -4 -10z"/>
<path d="M843 2895 c0 -8 4 -12 9 -9 5 3 6 10 3 15 -9 13 -12 11 -12 -6z"/>
<path d="M3390 2869 c0 -5 5 -7 10 -4 6 3 10 8 10 11 0 2 -4 4 -10 4 -5 0 -10
-5 -10 -11z"/>
<path d="M2530 2830 c0 -5 5 -10 11 -10 5 0 7 5 4 10 -3 6 -8 10 -11 10 -2 0
-4 -4 -4 -10z"/>
<path d="M2530 2750 c0 -5 5 -10 11 -10 5 0 7 5 4 10 -3 6 -8 10 -11 10 -2 0
-4 -4 -4 -10z"/>
<path d="M3841 2737 c-13 -21 -12 -21 5 -5 10 10 16 20 13 22 -3 3 -11 -5 -18
-17z"/>
<path d="M843 2735 c0 -8 4 -12 9 -9 5 3 6 10 3 15 -9 13 -12 11 -12 -6z"/>
<path d="M3393 2675 c0 -8 4 -12 9 -9 5 3 6 10 3 15 -9 13 -12 11 -12 -6z"/>
<path d="M840 2669 c0 -5 5 -7 10 -4 6 3 10 8 10 11 0 2 -4 4 -10 4 -5 0 -10
-5 -10 -11z"/>
<path d="M2530 2670 c0 -5 5 -10 11 -10 5 0 7 5 4 10 -3 6 -8 10 -11 10 -2 0
-4 -4 -4 -10z"/>
<path d="M2530 2590 c0 -5 5 -10 11 -10 5 0 7 5 4 10 -3 6 -8 10 -11 10 -2 0
-4 -4 -4 -10z"/>
<path d="M2530 2510 c0 -5 5 -10 11 -10 5 0 7 5 4 10 -3 6 -8 10 -11 10 -2 0
-4 -4 -4 -10z"/>
<path d="M843 2495 c0 -8 4 -12 9 -9 5 3 6 10 3 15 -9 13 -12 11 -12 -6z"/>
<path d="M3390 2469 c0 -5 5 -7 10 -4 6 3 10 8 10 11 0 2 -4 4 -10 4 -5 0 -10
-5 -10 -11z"/>
<path d="M2530 2430 c0 -5 5 -10 11 -10 5 0 7 5 4 10 -3 6 -8 10 -11 10 -2 0
-4 -4 -4 -10z"/>
<path d="M3390 2389 c0 -5 5 -7 10 -4 6 3 10 8 10 11 0 2 -4 4 -10 4 -5 0 -10
-5 -10 -11z"/>
<path d="M840 2349 c0 -5 5 -7 10 -4 6 3 10 8 10 11 0 2 -4 4 -10 4 -5 0 -10
-5 -10 -11z"/>
<path d="M2530 2350 c0 -5 5 -10 11 -10 5 0 7 5 4 10 -3 6 -8 10 -11 10 -2 0
-4 -4 -4 -10z"/>
<path d="M3393 2275 c0 -8 4 -12 9 -9 5 3 6 10 3 15 -9 13 -12 11 -12 -6z"/>
<path d="M2530 2270 c0 -5 5 -10 11 -10 5 0 7 5 4 10 -3 6 -8 10 -11 10 -2 0
-4 -4 -4 -10z"/>
<path d="M2530 2190 c0 -5 5 -10 11 -10 5 0 7 5 4 10 -3 6 -8 10 -11 10 -2 0
-4 -4 -4 -10z"/>
<path d="M843 2175 c0 -8 4 -12 9 -9 5 3 6 10 3 15 -9 13 -12 11 -12 -6z"/>
<path d="M2530 2110 c0 -5 5 -10 11 -10 5 0 7 5 4 10 -3 6 -8 10 -11 10 -2 0
-4 -4 -4 -10z"/>
<path d="M3390 1989 c0 -5 5 -7 10 -4 6 3 10 8 10 11 0 2 -4 4 -10 4 -5 0 -10
-5 -10 -11z"/>
<path d="M2195 1930 c-3 -6 1 -7 9 -4 18 7 21 14 7 14 -6 0 -13 -4 -16 -10z"/>
<path d="M3390 1909 c0 -5 5 -7 10 -4 6 3 10 8 10 11 0 2 -4 4 -10 4 -5 0 -10
-5 -10 -11z"/>
<path d="M1768 1759 c-4 -12 -18 -17 -61 -21 -11 -2 -15 -8 -12 -17 5 -12 3
-12 -12 0 -10 7 -15 10 -11 5 10 -12 -11 -48 -22 -41 -6 3 -7 -1 -4 -9 4 -9 0
-18 -9 -22 -9 -3 -13 -12 -10 -21 4 -10 2 -14 -5 -9 -6 3 -14 2 -17 -4 -4 -6
-1 -9 7 -8 7 2 11 -4 10 -12 -12 -50 -12 -61 -1 -54 9 5 10 2 6 -10 -4 -10 -1
-19 8 -22 8 -4 15 -13 15 -21 0 -8 4 -12 9 -9 5 3 8 -2 7 -12 0 -9 5 -16 12
-15 6 2 12 -2 12 -7 0 -5 5 -10 12 -10 6 0 20 -8 31 -17 15 -13 18 -14 12 -3
-6 11 -3 10 11 -2 16 -14 23 -15 34 -5 10 10 12 9 7 -5 -4 -10 -2 -18 3 -18 6
0 10 8 10 18 0 14 2 15 10 2 9 -13 10 -13 10 0 0 13 2 13 9 1 8 -12 12 -12 24
-2 12 9 16 9 20 -1 4 -8 6 -7 6 4 1 11 6 15 16 12 8 -4 17 1 21 10 5 13 9 14
20 5 12 -10 13 -8 8 6 -5 13 -4 16 4 11 7 -4 12 -2 12 4 0 6 5 8 13 4 7 -5 6
0 -3 11 -8 10 -10 16 -5 14 6 -3 18 2 28 13 9 10 14 18 11 18 -4 0 0 8 7 17
12 15 12 16 -5 10 -14 -6 -16 -4 -9 5 6 7 9 23 8 35 -1 12 2 20 7 17 4 -3 8 0
8 5 0 6 -5 11 -11 11 -7 0 -9 11 -6 28 4 22 1 31 -16 41 -21 13 -22 13 -4 -6
14 -16 14 -20 3 -20 -8 0 -14 3 -14 6 2 10 -15 45 -28 58 -10 10 -13 10 -17 0
-3 -6 -6 -3 -6 8 -1 17 -3 17 -11 5 -8 -13 -10 -12 -10 3 0 9 -5 17 -11 17 -5
0 -7 -4 -4 -10 3 -6 -1 -7 -9 -4 -9 3 -14 9 -12 13 6 9 -60 8 -70 -1 -4 -5
-13 -3 -20 3 -8 7 -13 6 -16 -2z"/>
<path d="M1618 1663 c7 -3 16 -2 19 1 4 3 -2 6 -13 5 -11 0 -14 -3 -6 -6z"/>
<path d="M2025 1581 c-3 -5 -2 -12 3 -15 5 -3 9 1 9 9 0 17 -3 19 -12 6z"/>
<path d="M4422 1461 c-11 -7 -11 -9 0 -14 9 -3 15 1 15 9 0 8 -1 14 -1 14 -1
0 -7 -4 -14 -9z"/>
</g>
</svg>
